<svg width="22" height="30" viewBox="0 0 22 30" fill="none" xmlns="http://www.w3.org/2000/svg">
<rect width="22" height="30" fill="#E5E5E5"/>
<g id="11_Home Screen" clip-path="url(#clip0_0_1)">
<rect width="375" height="1306" transform="translate(-219 -908)" fill="white"/>
<path id="Rectangle 302" d="M-219 -680C-219 -696.569 -205.569 -710 -189 -710H126C142.569 -710 156 -696.569 156 -680V417H-219V-680Z" fill="#F8F8FC"/>
<g id="content">
<g id="Diagnostics">
<g id="Frame 34545">
<g id="Group 34299">
<g id="Rectangle 306" filter="url(#filter0_dd_0_1)">
<rect x="-24" y="-20" width="160" height="212" rx="10" fill="white"/>
</g>
<circle id="Ellipse 581" cx="11" cy="15" r="25" fill="#FE4A46"/>
<g id="Group 34298">
<path id="Vector" d="M10.7374 22.4864C9.5391 24.2068 8.35979 25.9102 7.17097 27.6059C6.67167 28.3192 6.15524 29.0187 5.64452 29.723C5.4158 30.0387 5.17994 30.0806 4.85087 29.8689C3.3482 28.9017 1.84585 27.9348 0.343815 26.9682C-0.0575306 26.7095 -0.0998531 26.478 0.176904 26.0871C2.41189 22.9305 4.59931 19.7416 6.64979 16.4614C6.74965 16.3017 6.73872 16.1966 6.64979 16.0406C5.13698 13.4011 3.62781 10.7594 2.12229 8.11544C1.98534 7.87768 1.96204 7.65228 2.08758 7.3993C2.99806 5.55901 3.90473 3.71649 4.8076 1.87176C5.01588 1.44378 5.34019 1.15134 5.74676 0.934496C6.55992 0.500814 7.44297 0.29586 8.34362 0.157482C9.34841 0.00341066 10.3613 -0.0194141 11.3746 0.0124463C12.6586 0.0523906 13.9296 0.199329 15.1356 0.678185C15.449 0.802298 15.7671 0.951613 16.0277 1.15894C16.2736 1.3546 16.4755 1.59992 16.6202 1.87889C17.5094 3.65071 18.3744 5.43489 19.2475 7.21432C19.2854 7.30128 19.3288 7.38578 19.3773 7.4673C19.5105 7.66987 19.4919 7.86341 19.3773 8.06836C18.5461 9.55011 17.7301 11.0404 16.8855 12.5146C16.1984 13.7143 15.4803 14.8969 14.769 16.081C14.6929 16.2075 14.6933 16.2926 14.7718 16.4182C16.8599 19.7502 19.0687 23.0004 21.3522 26.2007C21.5424 26.4656 21.4905 26.7238 21.1857 26.9216C20.4962 27.3696 19.8015 27.8094 19.1101 28.2531C18.2788 28.7882 17.4484 29.3243 16.6188 29.8613C16.2797 30.0801 16.0434 30.0397 15.8104 29.7087C14.1619 27.3589 12.5134 25.0083 10.8649 22.6566C10.8235 22.6015 10.7812 22.5458 10.7374 22.4864ZM5.07437 28.8856C10.0008 22.1592 14.4682 15.1084 18.4462 7.78115C18.1219 7.41356 17.7015 7.21337 17.2674 7.04265C16.1927 6.61943 15.06 6.46203 13.9239 6.30796C13.6082 6.26516 13.4922 6.37644 13.3604 6.62942C10.222 12.6686 6.65027 18.4472 2.76901 24.0337C2.23309 24.8055 1.69194 25.574 1.14318 26.3576L5.07437 28.8856ZM3.81232 6.01266C3.84798 6.01599 3.86463 6.02217 3.87651 6.01742C4.98545 5.58183 6.15239 5.41302 7.32742 5.33979C8.62181 5.25895 9.92048 5.23137 11.2177 5.22328C12.7066 5.21377 14.1917 5.31839 15.6534 5.61702C16.3287 5.75587 16.9925 5.95369 17.6578 6.12393C17.6378 6.07923 17.6102 6.00885 17.5755 5.94133C16.9968 4.7644 16.4081 3.5927 15.8446 2.40863C15.704 2.09816 15.4557 1.84915 15.1456 1.7077C14.2254 1.26594 13.2373 1.0957 12.2368 1.00582C10.9733 0.892174 9.70649 0.900733 8.44919 1.0976C7.69976 1.21458 6.95936 1.37531 6.27032 1.71579C5.98134 1.84778 5.74766 2.07675 5.60981 2.36298C5.06438 3.48475 4.50231 4.59796 3.94546 5.71593C3.89981 5.81103 3.85797 5.90995 3.81042 6.01409L3.81232 6.01266ZM14.0894 17.2094C14.0618 17.2489 14.0205 17.3045 13.9834 17.3621C13.1274 18.7093 12.2715 20.0588 11.4075 21.4012C11.3095 21.5534 11.3161 21.6528 11.416 21.7959C13.0112 24.0784 14.6036 26.3618 16.1932 28.6459C16.2493 28.7272 16.3101 28.8052 16.3705 28.887L20.2508 26.3714L14.0894 17.2094ZM7.34216 15.3715C8.28799 13.7547 9.20529 12.1855 10.1169 10.6162C10.1313 10.5829 10.1383 10.5468 10.1375 10.5104C10.1366 10.474 10.128 10.4383 10.1121 10.4056C9.3928 9.06269 8.66778 7.7225 7.93705 6.385C7.91263 6.35069 7.88071 6.3224 7.84371 6.3023C7.80671 6.28219 7.76561 6.27079 7.72354 6.26897C6.75964 6.3227 5.80478 6.44396 4.87037 6.70217C4.24267 6.87574 3.63875 7.10114 3.15229 7.56193C3.02342 7.68366 2.98632 7.78495 3.08904 7.96423C4.12379 9.77409 5.14284 11.5925 6.17426 13.4043C6.5428 14.0481 6.93083 14.6792 7.34216 15.3715ZM8.90189 6.19906L10.716 9.57246L12.5264 6.19906H8.90189Z" fill="#0C1037"/>
<path id="Vector_2" d="M5.07437 28.8856L1.14319 26.3596C1.69195 25.5759 2.2331 24.8074 2.76902 24.0357C6.65028 18.4472 10.2234 12.6705 13.3605 6.63133C13.4922 6.37834 13.6082 6.26707 13.9239 6.30987C15.06 6.46394 16.1927 6.62134 17.2674 7.04456C17.7015 7.21527 18.1233 7.41547 18.4462 7.78305C14.4682 15.1097 10.0007 22.1598 5.07437 28.8856Z" fill="white"/>
<path id="Vector_3" d="M3.81042 6.01409C3.85798 5.90995 3.89792 5.81103 3.94547 5.71545C4.50041 4.59796 5.06249 3.48428 5.60982 2.3625C5.74767 2.07627 5.98135 1.84731 6.27033 1.71531C6.95937 1.37674 7.69977 1.21601 8.4492 1.09713C9.7065 0.900257 10.9733 0.891698 12.2368 1.00535C13.2354 1.09522 14.2254 1.26546 15.1456 1.70723C15.4557 1.84867 15.704 2.09768 15.8446 2.40816C16.4081 3.59222 16.9968 4.76392 17.5755 5.94085C17.6088 6.00838 17.6378 6.07876 17.6578 6.12346C16.9921 5.95322 16.3287 5.7554 15.6535 5.61654C14.1917 5.31553 12.7052 5.2133 11.2177 5.22281C9.92049 5.23089 8.62182 5.25847 7.32743 5.33931C6.1524 5.41254 4.98546 5.58136 3.87652 6.01694C3.86464 6.0236 3.84799 6.01742 3.81042 6.01409Z" fill="white"/>
<path id="Vector_4" d="M14.0894 17.2094L20.2508 26.3714L16.3705 28.887C16.3101 28.8052 16.2492 28.7272 16.1931 28.6459C14.6014 26.3634 13.009 24.0808 11.416 21.7983C11.3161 21.6556 11.3095 21.5558 11.4074 21.4036C12.2715 20.0612 13.126 18.7116 13.9833 17.3645C14.0204 17.3041 14.0618 17.2489 14.0894 17.2094Z" fill="white"/>
<path id="Vector_5" d="M7.3422 15.3715C6.93087 14.6792 6.54283 14.0481 6.1762 13.4047C5.14478 11.593 4.12572 9.77456 3.09098 7.9647C2.98826 7.78543 3.02535 7.68414 3.15422 7.56241C3.64068 7.10162 4.24461 6.87622 4.8723 6.70265C5.80481 6.44444 6.75967 6.32223 7.72547 6.26945C7.76754 6.27127 7.80865 6.28267 7.84565 6.30278C7.88265 6.32288 7.91456 6.35117 7.93898 6.38548C8.67034 7.72234 9.39537 9.06254 10.1141 10.4061C10.1299 10.4388 10.1386 10.4745 10.1394 10.5109C10.1402 10.5472 10.1332 10.5833 10.1188 10.6167C9.20531 12.1869 8.28802 13.7524 7.3422 15.3715Z" fill="white"/>
</g>
</g>
</g>
</g>
</g>
</g>
<defs>
<filter id="filter0_dd_0_1" x="-31" y="-24" width="174" height="226" filterUnits="userSpaceOnUse" color-interpolation-filters="sRGB">
<feFlood flood-opacity="0" result="BackgroundImageFix"/>
<feColorMatrix in="SourceAlpha" type="matrix" values="0 0 0 0 0 0 0 0 0 0 0 0 0 0 0 0 0 0 127 0" result="hardAlpha"/>
<feMorphology radius="1" operator="erode" in="SourceAlpha" result="effect1_dropShadow_0_1"/>
<feOffset dy="3"/>
<feGaussianBlur stdDeviation="4"/>
<feComposite in2="hardAlpha" operator="out"/>
<feColorMatrix type="matrix" values="0 0 0 0 0.278431 0 0 0 0 0.196078 0 0 0 0 0.196078 0 0 0 0.05 0"/>
<feBlend mode="normal" in2="BackgroundImageFix" result="effect1_dropShadow_0_1"/>
<feColorMatrix in="SourceAlpha" type="matrix" values="0 0 0 0 0 0 0 0 0 0 0 0 0 0 0 0 0 0 127 0" result="hardAlpha"/>
<feOffset/>
<feGaussianBlur stdDeviation="0.5"/>
<feComposite in2="hardAlpha" operator="out"/>
<feColorMatrix type="matrix" values="0 0 0 0 0.0470588 0 0 0 0 0.101961 0 0 0 0 0.294118 0 0 0 0.24 0"/>
<feBlend mode="normal" in2="effect1_dropShadow_0_1" result="effect2_dropShadow_0_1"/>
<feBlend mode="normal" in="SourceGraphic" in2="effect2_dropShadow_0_1" result="shape"/>
</filter>
<clipPath id="clip0_0_1">
<rect width="375" height="1306" fill="white" transform="translate(-219 -908)"/>
</clipPath>
</defs>
</svg>
