<svg width="50" height="50" viewBox="0 0 50 50" fill="none" xmlns="http://www.w3.org/2000/svg">
<circle cx="25" cy="25" r="25" fill="#FEBA0C"/>
<mask id="path-2-outside-1_234_10126" maskUnits="userSpaceOnUse" x="9.44995" y="9.46004" width="31" height="31" fill="black">
<rect fill="white" x="9.44995" y="9.46004" width="31" height="31"/>
<path d="M14.7748 22.6772C15.0337 22.0102 15.2719 21.3691 15.5252 20.7331C15.6017 20.5504 15.6955 20.3755 15.8053 20.2106C15.8918 20.076 15.8856 19.9915 15.7536 19.8874C15.1005 19.3654 14.4231 18.8771 13.6386 18.5663C13.5265 18.5238 13.4116 18.4892 13.2947 18.4628C12.3283 18.2282 11.8162 17.3266 12.0746 16.295C12.2894 15.4471 12.7363 14.676 13.3651 14.0681C14.1036 13.3384 14.9244 12.7397 15.9649 12.5093C16.4998 12.3912 17.026 12.399 17.5299 12.6388C17.9861 12.8558 18.2658 13.2058 18.3704 13.7113C18.5728 14.6551 18.9039 15.5666 19.3543 16.4203L22.2234 15.1458C22.1162 14.5016 21.9955 13.7791 21.5372 13.2167C21.0576 12.6279 21.1643 11.8827 21.6382 11.399C22.112 10.9153 22.7122 10.6626 23.3668 10.5419C24.3088 10.3684 25.2229 10.459 26.0717 10.9262C26.6061 11.2208 26.9459 11.6595 26.8801 12.3073C26.8508 12.5102 26.7902 12.7073 26.7004 12.8915C26.4199 13.5133 26.2156 14.1668 26.0919 14.8377C26.6098 14.9216 27.1131 14.9821 27.6072 15.0888C28.1012 15.1955 28.5844 15.3478 29.095 15.4876C29.3146 14.9728 29.501 14.4311 29.4726 13.8594C29.4239 12.8884 30.1934 12.4409 30.8403 12.4363C32.4162 12.4238 33.6166 13.125 34.4447 14.4524C34.5771 14.6837 34.6562 14.9416 34.6762 15.2074C34.7279 15.7253 34.4882 16.1054 34.0495 16.3913C33.5037 16.7471 32.9796 17.1355 32.4141 17.5306C33.381 18.425 34.1298 19.3949 34.7041 20.5213C35.3919 20.2142 36.0273 19.859 36.5193 19.3038C36.9817 18.7818 37.5628 18.6357 38.1873 18.9516C38.7927 19.2577 39.1615 19.7839 39.4582 20.3696C39.7907 21.0262 39.8953 21.7383 39.9818 22.4592C40.0273 22.8404 39.9921 23.1925 39.8202 23.5343C39.5462 24.0791 39.0299 24.3303 38.4344 24.236C37.6182 24.1066 36.7974 24.0227 35.9398 24.1205C36.1019 25.9295 35.8797 27.6783 35.1945 29.3951C35.3261 29.4148 35.4426 29.4562 35.5529 29.4438C36.0112 29.392 36.4747 29.3588 36.9237 29.2604C37.4768 29.1393 38.0071 29.3526 38.3298 29.8855C38.6136 30.3557 38.6664 30.8741 38.6457 31.405C38.6016 32.5225 38.2428 33.5168 37.4193 34.2983C36.9688 34.7261 36.4354 34.9348 35.8139 34.6676C35.6975 34.6133 35.5898 34.5419 35.4944 34.4558C34.8004 33.8602 34.091 33.2905 33.2608 32.8856C32.991 32.754 32.8274 32.7763 32.6093 33.0093C31.9402 33.7261 31.1329 34.2735 30.282 34.753C30.1013 34.8566 30.0712 34.9451 30.1354 35.1373C30.3271 35.7069 30.5922 36.245 31.0029 36.679C31.7538 37.4719 31.586 38.3222 30.8724 38.9095C29.7398 39.8416 28.4296 40.1446 27.0039 39.6759C26.7356 39.5879 26.4787 39.4118 26.2649 39.2212C25.848 38.8499 25.8739 38.3673 25.9826 37.8618C26.1105 37.2668 26.2001 36.6629 26.3151 36.0125C24.9477 36.1437 23.5678 36.0208 22.2451 35.65C21.8971 36.3574 21.56 37.056 21.5517 37.868C21.5444 38.5889 20.9551 39.1197 20.1741 39.171C19.0586 39.244 18.1746 38.7665 17.3906 38.0379C16.9887 37.6645 16.6516 37.2466 16.4765 36.7137C16.2575 36.0487 16.3543 35.4066 17.1498 34.9835C17.6769 34.7038 18.1591 34.3403 18.6676 34.0104L17.0255 32.492C16.7764 32.897 16.4392 33.2885 16.2792 33.7401C16.0912 34.2714 15.4542 34.7577 14.7313 34.5914C13.7654 34.3693 13.1031 33.7276 12.5645 32.9436C12.2071 32.4229 11.9823 31.823 11.9094 31.1957C11.8188 30.4407 12.1683 29.7882 12.7955 29.5929C13.1626 29.479 13.551 29.4376 13.925 29.3412C14.2875 29.2491 14.65 29.1341 15.0125 29.0253C14.8903 28.5629 14.7732 28.1258 14.6588 27.6882C14.6329 27.5882 14.6122 27.4872 14.593 27.3857C14.5112 26.9538 14.5138 26.944 14.0901 26.8715C13.377 26.7493 12.6686 26.6685 11.941 26.8404C11.2776 26.9958 10.6872 26.5566 10.5453 25.8513C10.2434 24.3494 10.6649 23.0548 11.7178 21.9672C12.304 21.3623 12.9648 21.2717 13.7235 21.641C13.7893 21.6726 13.839 21.7399 13.8928 21.7963C14.1922 22.0936 14.4884 22.3908 14.7748 22.6772ZM14.3227 23.6793C14.2709 24.4432 13.9394 25.0822 13.5598 25.6809C14.1176 25.8192 14.6624 25.9647 15.2129 26.0854C15.4625 26.1403 15.5138 26.2951 15.5599 26.5136C15.6987 27.1765 15.8494 27.8378 16.026 28.4914C16.1171 28.8265 16.2735 29.1444 16.4138 29.5054L14.8846 30.2035C15.4273 30.7214 15.8986 31.2843 16.1632 31.9969L16.2637 32.0404L17.2197 30.8741C18.4802 32.4096 18.7215 32.7499 20.3725 33.7841L19.1612 35.0891C19.7386 35.3527 20.3756 35.7023 20.8137 36.2476L21.7977 34.4703C23.6278 35.0627 25.4357 35.1761 27.3151 34.8442V36.6049C28.0401 36.3165 28.7481 36.1067 29.4845 36.1611C29.2825 35.5474 29.0914 34.97 28.9008 34.39C30.3395 33.7913 31.4902 32.9244 32.4742 31.8234C32.547 31.7582 32.6427 31.7243 32.7403 31.7291C33.2422 31.7582 33.6855 31.97 34.1169 32.2071C34.3758 32.3496 34.6316 32.5023 34.9045 32.6598C34.9253 31.8762 35.1117 31.1704 35.4711 30.5474L33.6068 30.2185C34.7885 28.0191 35.093 25.7648 34.6705 23.3826C35.3608 23.0563 36.1246 23.1236 36.8973 23.0201C36.483 22.3681 36.3007 21.6632 36.2241 20.9486C35.6301 21.1997 35.0583 21.4364 34.4918 21.6839C34.3017 21.7673 34.2075 21.7233 34.122 21.5317C33.6825 20.5363 33.073 19.6251 32.3209 18.8388C31.9128 18.4131 31.4783 18.0102 31.0262 17.5725L32.1536 16.3887C31.4286 16.1608 30.8258 15.759 30.2996 15.2753L29.6264 16.7605C28.1494 16.0262 26.6351 15.6978 24.9955 15.673C25.0794 15.0034 25.1582 14.3695 25.2405 13.7102C24.536 13.9085 23.7962 13.9474 23.0747 13.8242C23.1913 14.5109 23.3026 15.1665 23.4165 15.8387C21.84 16.1238 20.3614 16.8033 19.1182 17.8139C18.6081 17.1738 18.2896 16.4306 17.9447 15.6471C17.2968 16.7952 16.3812 17.5855 15.216 18.1298C15.2947 18.1893 15.3356 18.2194 15.3755 18.2515C15.9279 18.6927 16.4786 19.1343 17.0275 19.5762C17.2062 19.7191 17.2388 19.8496 17.0933 20.0677C16.4474 21.0453 15.9882 22.1341 15.7391 23.279C15.6536 23.6602 15.6158 24.0522 15.5474 24.497L14.3227 23.6793ZM16.5221 13.4492C16.4238 13.4539 16.3261 13.4671 16.23 13.4886C14.7965 13.8832 13.7805 14.7688 13.1963 16.1298C13.0927 16.3716 13.087 16.6647 13.0777 16.935C13.0818 16.9975 13.0988 17.0584 13.1277 17.114C13.1566 17.1695 13.1967 17.2185 13.2455 17.2577C13.3657 17.3484 13.5053 17.4102 13.6533 17.4383C13.8014 17.4663 13.9539 17.4598 14.099 17.4193C15.2341 17.1453 16.0866 16.47 16.7582 15.5466C17.0477 15.1489 17.2911 14.718 17.3279 14.2126C17.3683 13.6693 17.1311 13.4316 16.5221 13.4492ZM12.9881 31.1507C13.0202 31.2884 13.0508 31.5308 13.1347 31.753C13.4454 32.5816 13.9747 33.2289 14.7991 33.5904C15.1513 33.7458 15.2968 33.6241 15.3584 33.2543C15.4138 32.9239 15.3408 32.6277 15.2129 32.3351C14.8877 31.5909 14.3776 31.0145 13.6334 30.6779C13.1963 30.4774 12.9803 30.6183 12.9881 31.1507ZM18.1669 35.9622C17.4615 35.9571 17.3341 36.158 17.5723 36.6635C17.576 36.6712 17.5786 36.6795 17.5827 36.6868C18.1037 37.5894 18.8919 38.1037 19.9131 38.2404C20.4968 38.3186 20.6563 38.0721 20.4155 37.5247C20.4125 37.5167 20.4091 37.5089 20.4051 37.5014C19.8805 36.5739 19.0586 36.1 18.1694 35.9622H18.1669ZM38.9186 22.265H38.8953C38.8953 22.1531 38.8984 22.0408 38.8953 21.9294C38.872 21.148 38.569 20.4923 37.974 19.9889C37.6311 19.6995 37.3919 19.7818 37.2324 20.2065C37.2111 20.2624 37.1948 20.3201 37.1837 20.3789C37.062 21.0351 37.2112 21.6518 37.5265 22.2158C37.7131 22.5429 37.9493 22.839 38.2267 23.0936C38.5281 23.3733 38.7544 23.2795 38.8482 22.8782C38.8927 22.6777 38.8942 22.469 38.9186 22.265ZM24.2943 11.3679C24.0307 11.399 23.8345 11.3933 23.6584 11.4492C23.2684 11.5735 22.8738 11.6988 22.5092 11.8806C22.2099 12.0297 22.1835 12.2581 22.4378 12.4762C22.6409 12.645 22.8787 12.7671 23.1343 12.834C23.9111 13.0412 24.6688 12.9132 25.3896 12.5751C25.5179 12.5051 25.6361 12.418 25.7408 12.3161C25.9122 12.1654 25.9054 11.9873 25.7408 11.85C25.5906 11.7283 25.4176 11.6092 25.2353 11.5564C24.9054 11.4622 24.5631 11.4197 24.2943 11.3679ZM31.1821 13.3508C30.4928 13.3239 30.2825 13.5958 30.5539 14.0396C31.1199 14.964 31.9837 15.4425 33.048 15.5223C33.5658 15.5611 33.7155 15.2722 33.4472 14.8144C32.9112 13.8998 32.0423 13.5171 31.1826 13.3493L31.1821 13.3508ZM28.1359 38.882L28.1468 38.8152C28.2587 38.8152 28.371 38.8235 28.4819 38.8152C29.1334 38.7572 29.7175 38.5309 30.2095 38.0938C30.5668 37.7764 30.5156 37.505 30.0769 37.3341C29.6031 37.1492 29.1168 37.1616 28.6305 37.2632C28.0406 37.3864 27.4912 37.6029 27.0924 38.0804C26.8656 38.3512 26.893 38.5164 27.224 38.65C27.5145 38.7603 27.8319 38.8033 28.1364 38.8779L28.1359 38.882ZM13.2481 23.1899C13.2254 22.9912 13.188 22.7943 13.1362 22.6011C13.114 22.527 12.9405 22.4281 12.8773 22.4514C12.6932 22.5172 12.5242 22.6196 12.3807 22.7523C11.8379 23.2878 11.5681 23.9673 11.4816 24.7078C11.4459 25.0139 11.5163 25.3375 11.5717 25.6472C11.6002 25.8052 11.7229 25.9435 11.9115 25.8337C12.1186 25.712 12.3506 25.5929 12.4987 25.4126C12.9969 24.8072 13.2212 24.0921 13.2481 23.1899ZM37.5436 31.3998C37.4918 31.132 37.4587 30.857 37.3764 30.5986C37.2899 30.3278 37.0858 30.2765 36.8471 30.4371C36.7537 30.4985 36.6701 30.5735 36.599 30.6597C35.9838 31.4272 35.8258 32.3345 35.8507 33.2802C35.8554 33.4532 36.0061 33.6784 36.1614 33.7773C36.3406 33.8949 36.5364 33.738 36.6845 33.5997C36.7585 33.528 36.8248 33.4486 36.8823 33.363C37.2914 32.7881 37.5215 32.1051 37.5436 31.3998Z"/>
</mask>
<path d="M14.7748 22.6772C15.0337 22.0102 15.2719 21.3691 15.5252 20.7331C15.6017 20.5504 15.6955 20.3755 15.8053 20.2106C15.8918 20.076 15.8856 19.9915 15.7536 19.8874C15.1005 19.3654 14.4231 18.8771 13.6386 18.5663C13.5265 18.5238 13.4116 18.4892 13.2947 18.4628C12.3283 18.2282 11.8162 17.3266 12.0746 16.295C12.2894 15.4471 12.7363 14.676 13.3651 14.0681C14.1036 13.3384 14.9244 12.7397 15.9649 12.5093C16.4998 12.3912 17.026 12.399 17.5299 12.6388C17.9861 12.8558 18.2658 13.2058 18.3704 13.7113C18.5728 14.6551 18.9039 15.5666 19.3543 16.4203L22.2234 15.1458C22.1162 14.5016 21.9955 13.7791 21.5372 13.2167C21.0576 12.6279 21.1643 11.8827 21.6382 11.399C22.112 10.9153 22.7122 10.6626 23.3668 10.5419C24.3088 10.3684 25.2229 10.459 26.0717 10.9262C26.6061 11.2208 26.9459 11.6595 26.8801 12.3073C26.8508 12.5102 26.7902 12.7073 26.7004 12.8915C26.4199 13.5133 26.2156 14.1668 26.0919 14.8377C26.6098 14.9216 27.1131 14.9821 27.6072 15.0888C28.1012 15.1955 28.5844 15.3478 29.095 15.4876C29.3146 14.9728 29.501 14.4311 29.4726 13.8594C29.4239 12.8884 30.1934 12.4409 30.8403 12.4363C32.4162 12.4238 33.6166 13.125 34.4447 14.4524C34.5771 14.6837 34.6562 14.9416 34.6762 15.2074C34.7279 15.7253 34.4882 16.1054 34.0495 16.3913C33.5037 16.7471 32.9796 17.1355 32.4141 17.5306C33.381 18.425 34.1298 19.3949 34.7041 20.5213C35.3919 20.2142 36.0273 19.859 36.5193 19.3038C36.9817 18.7818 37.5628 18.6357 38.1873 18.9516C38.7927 19.2577 39.1615 19.7839 39.4582 20.3696C39.7907 21.0262 39.8953 21.7383 39.9818 22.4592C40.0273 22.8404 39.9921 23.1925 39.8202 23.5343C39.5462 24.0791 39.0299 24.3303 38.4344 24.236C37.6182 24.1066 36.7974 24.0227 35.9398 24.1205C36.1019 25.9295 35.8797 27.6783 35.1945 29.3951C35.3261 29.4148 35.4426 29.4562 35.5529 29.4438C36.0112 29.392 36.4747 29.3588 36.9237 29.2604C37.4768 29.1393 38.0071 29.3526 38.3298 29.8855C38.6136 30.3557 38.6664 30.8741 38.6457 31.405C38.6016 32.5225 38.2428 33.5168 37.4193 34.2983C36.9688 34.7261 36.4354 34.9348 35.8139 34.6676C35.6975 34.6133 35.5898 34.5419 35.4944 34.4558C34.8004 33.8602 34.091 33.2905 33.2608 32.8856C32.991 32.754 32.8274 32.7763 32.6093 33.0093C31.9402 33.7261 31.1329 34.2735 30.282 34.753C30.1013 34.8566 30.0712 34.9451 30.1354 35.1373C30.3271 35.7069 30.5922 36.245 31.0029 36.679C31.7538 37.4719 31.586 38.3222 30.8724 38.9095C29.7398 39.8416 28.4296 40.1446 27.0039 39.6759C26.7356 39.5879 26.4787 39.4118 26.2649 39.2212C25.848 38.8499 25.8739 38.3673 25.9826 37.8618C26.1105 37.2668 26.2001 36.6629 26.3151 36.0125C24.9477 36.1437 23.5678 36.0208 22.2451 35.65C21.8971 36.3574 21.56 37.056 21.5517 37.868C21.5444 38.5889 20.9551 39.1197 20.1741 39.171C19.0586 39.244 18.1746 38.7665 17.3906 38.0379C16.9887 37.6645 16.6516 37.2466 16.4765 36.7137C16.2575 36.0487 16.3543 35.4066 17.1498 34.9835C17.6769 34.7038 18.1591 34.3403 18.6676 34.0104L17.0255 32.492C16.7764 32.897 16.4392 33.2885 16.2792 33.7401C16.0912 34.2714 15.4542 34.7577 14.7313 34.5914C13.7654 34.3693 13.1031 33.7276 12.5645 32.9436C12.2071 32.4229 11.9823 31.823 11.9094 31.1957C11.8188 30.4407 12.1683 29.7882 12.7955 29.5929C13.1626 29.479 13.551 29.4376 13.925 29.3412C14.2875 29.2491 14.65 29.1341 15.0125 29.0253C14.8903 28.5629 14.7732 28.1258 14.6588 27.6882C14.6329 27.5882 14.6122 27.4872 14.593 27.3857C14.5112 26.9538 14.5138 26.944 14.0901 26.8715C13.377 26.7493 12.6686 26.6685 11.941 26.8404C11.2776 26.9958 10.6872 26.5566 10.5453 25.8513C10.2434 24.3494 10.6649 23.0548 11.7178 21.9672C12.304 21.3623 12.9648 21.2717 13.7235 21.641C13.7893 21.6726 13.839 21.7399 13.8928 21.7963C14.1922 22.0936 14.4884 22.3908 14.7748 22.6772ZM14.3227 23.6793C14.2709 24.4432 13.9394 25.0822 13.5598 25.6809C14.1176 25.8192 14.6624 25.9647 15.2129 26.0854C15.4625 26.1403 15.5138 26.2951 15.5599 26.5136C15.6987 27.1765 15.8494 27.8378 16.026 28.4914C16.1171 28.8265 16.2735 29.1444 16.4138 29.5054L14.8846 30.2035C15.4273 30.7214 15.8986 31.2843 16.1632 31.9969L16.2637 32.0404L17.2197 30.8741C18.4802 32.4096 18.7215 32.7499 20.3725 33.7841L19.1612 35.0891C19.7386 35.3527 20.3756 35.7023 20.8137 36.2476L21.7977 34.4703C23.6278 35.0627 25.4357 35.1761 27.3151 34.8442V36.6049C28.0401 36.3165 28.7481 36.1067 29.4845 36.1611C29.2825 35.5474 29.0914 34.97 28.9008 34.39C30.3395 33.7913 31.4902 32.9244 32.4742 31.8234C32.547 31.7582 32.6427 31.7243 32.7403 31.7291C33.2422 31.7582 33.6855 31.97 34.1169 32.2071C34.3758 32.3496 34.6316 32.5023 34.9045 32.6598C34.9253 31.8762 35.1117 31.1704 35.4711 30.5474L33.6068 30.2185C34.7885 28.0191 35.093 25.7648 34.6705 23.3826C35.3608 23.0563 36.1246 23.1236 36.8973 23.0201C36.483 22.3681 36.3007 21.6632 36.2241 20.9486C35.6301 21.1997 35.0583 21.4364 34.4918 21.6839C34.3017 21.7673 34.2075 21.7233 34.122 21.5317C33.6825 20.5363 33.073 19.6251 32.3209 18.8388C31.9128 18.4131 31.4783 18.0102 31.0262 17.5725L32.1536 16.3887C31.4286 16.1608 30.8258 15.759 30.2996 15.2753L29.6264 16.7605C28.1494 16.0262 26.6351 15.6978 24.9955 15.673C25.0794 15.0034 25.1582 14.3695 25.2405 13.7102C24.536 13.9085 23.7962 13.9474 23.0747 13.8242C23.1913 14.5109 23.3026 15.1665 23.4165 15.8387C21.84 16.1238 20.3614 16.8033 19.1182 17.8139C18.6081 17.1738 18.2896 16.4306 17.9447 15.6471C17.2968 16.7952 16.3812 17.5855 15.216 18.1298C15.2947 18.1893 15.3356 18.2194 15.3755 18.2515C15.9279 18.6927 16.4786 19.1343 17.0275 19.5762C17.2062 19.7191 17.2388 19.8496 17.0933 20.0677C16.4474 21.0453 15.9882 22.1341 15.7391 23.279C15.6536 23.6602 15.6158 24.0522 15.5474 24.497L14.3227 23.6793ZM16.5221 13.4492C16.4238 13.4539 16.3261 13.4671 16.23 13.4886C14.7965 13.8832 13.7805 14.7688 13.1963 16.1298C13.0927 16.3716 13.087 16.6647 13.0777 16.935C13.0818 16.9975 13.0988 17.0584 13.1277 17.114C13.1566 17.1695 13.1967 17.2185 13.2455 17.2577C13.3657 17.3484 13.5053 17.4102 13.6533 17.4383C13.8014 17.4663 13.9539 17.4598 14.099 17.4193C15.2341 17.1453 16.0866 16.47 16.7582 15.5466C17.0477 15.1489 17.2911 14.718 17.3279 14.2126C17.3683 13.6693 17.1311 13.4316 16.5221 13.4492ZM12.9881 31.1507C13.0202 31.2884 13.0508 31.5308 13.1347 31.753C13.4454 32.5816 13.9747 33.2289 14.7991 33.5904C15.1513 33.7458 15.2968 33.6241 15.3584 33.2543C15.4138 32.9239 15.3408 32.6277 15.2129 32.3351C14.8877 31.5909 14.3776 31.0145 13.6334 30.6779C13.1963 30.4774 12.9803 30.6183 12.9881 31.1507ZM18.1669 35.9622C17.4615 35.9571 17.3341 36.158 17.5723 36.6635C17.576 36.6712 17.5786 36.6795 17.5827 36.6868C18.1037 37.5894 18.8919 38.1037 19.9131 38.2404C20.4968 38.3186 20.6563 38.0721 20.4155 37.5247C20.4125 37.5167 20.4091 37.5089 20.4051 37.5014C19.8805 36.5739 19.0586 36.1 18.1694 35.9622H18.1669ZM38.9186 22.265H38.8953C38.8953 22.1531 38.8984 22.0408 38.8953 21.9294C38.872 21.148 38.569 20.4923 37.974 19.9889C37.6311 19.6995 37.3919 19.7818 37.2324 20.2065C37.2111 20.2624 37.1948 20.3201 37.1837 20.3789C37.062 21.0351 37.2112 21.6518 37.5265 22.2158C37.7131 22.5429 37.9493 22.839 38.2267 23.0936C38.5281 23.3733 38.7544 23.2795 38.8482 22.8782C38.8927 22.6777 38.8942 22.469 38.9186 22.265ZM24.2943 11.3679C24.0307 11.399 23.8345 11.3933 23.6584 11.4492C23.2684 11.5735 22.8738 11.6988 22.5092 11.8806C22.2099 12.0297 22.1835 12.2581 22.4378 12.4762C22.6409 12.645 22.8787 12.7671 23.1343 12.834C23.9111 13.0412 24.6688 12.9132 25.3896 12.5751C25.5179 12.5051 25.6361 12.418 25.7408 12.3161C25.9122 12.1654 25.9054 11.9873 25.7408 11.85C25.5906 11.7283 25.4176 11.6092 25.2353 11.5564C24.9054 11.4622 24.5631 11.4197 24.2943 11.3679ZM31.1821 13.3508C30.4928 13.3239 30.2825 13.5958 30.5539 14.0396C31.1199 14.964 31.9837 15.4425 33.048 15.5223C33.5658 15.5611 33.7155 15.2722 33.4472 14.8144C32.9112 13.8998 32.0423 13.5171 31.1826 13.3493L31.1821 13.3508ZM28.1359 38.882L28.1468 38.8152C28.2587 38.8152 28.371 38.8235 28.4819 38.8152C29.1334 38.7572 29.7175 38.5309 30.2095 38.0938C30.5668 37.7764 30.5156 37.505 30.0769 37.3341C29.6031 37.1492 29.1168 37.1616 28.6305 37.2632C28.0406 37.3864 27.4912 37.6029 27.0924 38.0804C26.8656 38.3512 26.893 38.5164 27.224 38.65C27.5145 38.7603 27.8319 38.8033 28.1364 38.8779L28.1359 38.882ZM13.2481 23.1899C13.2254 22.9912 13.188 22.7943 13.1362 22.6011C13.114 22.527 12.9405 22.4281 12.8773 22.4514C12.6932 22.5172 12.5242 22.6196 12.3807 22.7523C11.8379 23.2878 11.5681 23.9673 11.4816 24.7078C11.4459 25.0139 11.5163 25.3375 11.5717 25.6472C11.6002 25.8052 11.7229 25.9435 11.9115 25.8337C12.1186 25.712 12.3506 25.5929 12.4987 25.4126C12.9969 24.8072 13.2212 24.0921 13.2481 23.1899ZM37.5436 31.3998C37.4918 31.132 37.4587 30.857 37.3764 30.5986C37.2899 30.3278 37.0858 30.2765 36.8471 30.4371C36.7537 30.4985 36.6701 30.5735 36.599 30.6597C35.9838 31.4272 35.8258 32.3345 35.8507 33.2802C35.8554 33.4532 36.0061 33.6784 36.1614 33.7773C36.3406 33.8949 36.5364 33.738 36.6845 33.5997C36.7585 33.528 36.8248 33.4486 36.8823 33.363C37.2914 32.7881 37.5215 32.1051 37.5436 31.3998Z" fill="white"/>
<path d="M14.7748 22.6772C15.0337 22.0102 15.2719 21.3691 15.5252 20.7331C15.6017 20.5504 15.6955 20.3755 15.8053 20.2106C15.8918 20.076 15.8856 19.9915 15.7536 19.8874C15.1005 19.3654 14.4231 18.8771 13.6386 18.5663C13.5265 18.5238 13.4116 18.4892 13.2947 18.4628C12.3283 18.2282 11.8162 17.3266 12.0746 16.295C12.2894 15.4471 12.7363 14.676 13.3651 14.0681C14.1036 13.3384 14.9244 12.7397 15.9649 12.5093C16.4998 12.3912 17.026 12.399 17.5299 12.6388C17.9861 12.8558 18.2658 13.2058 18.3704 13.7113C18.5728 14.6551 18.9039 15.5666 19.3543 16.4203L22.2234 15.1458C22.1162 14.5016 21.9955 13.7791 21.5372 13.2167C21.0576 12.6279 21.1643 11.8827 21.6382 11.399C22.112 10.9153 22.7122 10.6626 23.3668 10.5419C24.3088 10.3684 25.2229 10.459 26.0717 10.9262C26.6061 11.2208 26.9459 11.6595 26.8801 12.3073C26.8508 12.5102 26.7902 12.7073 26.7004 12.8915C26.4199 13.5133 26.2156 14.1668 26.0919 14.8377C26.6098 14.9216 27.1131 14.9821 27.6072 15.0888C28.1012 15.1955 28.5844 15.3478 29.095 15.4876C29.3146 14.9728 29.501 14.4311 29.4726 13.8594C29.4239 12.8884 30.1934 12.4409 30.8403 12.4363C32.4162 12.4238 33.6166 13.125 34.4447 14.4524C34.5771 14.6837 34.6562 14.9416 34.6762 15.2074C34.7279 15.7253 34.4882 16.1054 34.0495 16.3913C33.5037 16.7471 32.9796 17.1355 32.4141 17.5306C33.381 18.425 34.1298 19.3949 34.7041 20.5213C35.3919 20.2142 36.0273 19.859 36.5193 19.3038C36.9817 18.7818 37.5628 18.6357 38.1873 18.9516C38.7927 19.2577 39.1615 19.7839 39.4582 20.3696C39.7907 21.0262 39.8953 21.7383 39.9818 22.4592C40.0273 22.8404 39.9921 23.1925 39.8202 23.5343C39.5462 24.0791 39.0299 24.3303 38.4344 24.236C37.6182 24.1066 36.7974 24.0227 35.9398 24.1205C36.1019 25.9295 35.8797 27.6783 35.1945 29.3951C35.3261 29.4148 35.4426 29.4562 35.5529 29.4438C36.0112 29.392 36.4747 29.3588 36.9237 29.2604C37.4768 29.1393 38.0071 29.3526 38.3298 29.8855C38.6136 30.3557 38.6664 30.8741 38.6457 31.405C38.6016 32.5225 38.2428 33.5168 37.4193 34.2983C36.9688 34.7261 36.4354 34.9348 35.8139 34.6676C35.6975 34.6133 35.5898 34.5419 35.4944 34.4558C34.8004 33.8602 34.091 33.2905 33.2608 32.8856C32.991 32.754 32.8274 32.7763 32.6093 33.0093C31.9402 33.7261 31.1329 34.2735 30.282 34.753C30.1013 34.8566 30.0712 34.9451 30.1354 35.1373C30.3271 35.7069 30.5922 36.245 31.0029 36.679C31.7538 37.4719 31.586 38.3222 30.8724 38.9095C29.7398 39.8416 28.4296 40.1446 27.0039 39.6759C26.7356 39.5879 26.4787 39.4118 26.2649 39.2212C25.848 38.8499 25.8739 38.3673 25.9826 37.8618C26.1105 37.2668 26.2001 36.6629 26.3151 36.0125C24.9477 36.1437 23.5678 36.0208 22.2451 35.65C21.8971 36.3574 21.56 37.056 21.5517 37.868C21.5444 38.5889 20.9551 39.1197 20.1741 39.171C19.0586 39.244 18.1746 38.7665 17.3906 38.0379C16.9887 37.6645 16.6516 37.2466 16.4765 36.7137C16.2575 36.0487 16.3543 35.4066 17.1498 34.9835C17.6769 34.7038 18.1591 34.3403 18.6676 34.0104L17.0255 32.492C16.7764 32.897 16.4392 33.2885 16.2792 33.7401C16.0912 34.2714 15.4542 34.7577 14.7313 34.5914C13.7654 34.3693 13.1031 33.7276 12.5645 32.9436C12.2071 32.4229 11.9823 31.823 11.9094 31.1957C11.8188 30.4407 12.1683 29.7882 12.7955 29.5929C13.1626 29.479 13.551 29.4376 13.925 29.3412C14.2875 29.2491 14.65 29.1341 15.0125 29.0253C14.8903 28.5629 14.7732 28.1258 14.6588 27.6882C14.6329 27.5882 14.6122 27.4872 14.593 27.3857C14.5112 26.9538 14.5138 26.944 14.0901 26.8715C13.377 26.7493 12.6686 26.6685 11.941 26.8404C11.2776 26.9958 10.6872 26.5566 10.5453 25.8513C10.2434 24.3494 10.6649 23.0548 11.7178 21.9672C12.304 21.3623 12.9648 21.2717 13.7235 21.641C13.7893 21.6726 13.839 21.7399 13.8928 21.7963C14.1922 22.0936 14.4884 22.3908 14.7748 22.6772ZM14.3227 23.6793C14.2709 24.4432 13.9394 25.0822 13.5598 25.6809C14.1176 25.8192 14.6624 25.9647 15.2129 26.0854C15.4625 26.1403 15.5138 26.2951 15.5599 26.5136C15.6987 27.1765 15.8494 27.8378 16.026 28.4914C16.1171 28.8265 16.2735 29.1444 16.4138 29.5054L14.8846 30.2035C15.4273 30.7214 15.8986 31.2843 16.1632 31.9969L16.2637 32.0404L17.2197 30.8741C18.4802 32.4096 18.7215 32.7499 20.3725 33.7841L19.1612 35.0891C19.7386 35.3527 20.3756 35.7023 20.8137 36.2476L21.7977 34.4703C23.6278 35.0627 25.4357 35.1761 27.3151 34.8442V36.6049C28.0401 36.3165 28.7481 36.1067 29.4845 36.1611C29.2825 35.5474 29.0914 34.97 28.9008 34.39C30.3395 33.7913 31.4902 32.9244 32.4742 31.8234C32.547 31.7582 32.6427 31.7243 32.7403 31.7291C33.2422 31.7582 33.6855 31.97 34.1169 32.2071C34.3758 32.3496 34.6316 32.5023 34.9045 32.6598C34.9253 31.8762 35.1117 31.1704 35.4711 30.5474L33.6068 30.2185C34.7885 28.0191 35.093 25.7648 34.6705 23.3826C35.3608 23.0563 36.1246 23.1236 36.8973 23.0201C36.483 22.3681 36.3007 21.6632 36.2241 20.9486C35.6301 21.1997 35.0583 21.4364 34.4918 21.6839C34.3017 21.7673 34.2075 21.7233 34.122 21.5317C33.6825 20.5363 33.073 19.6251 32.3209 18.8388C31.9128 18.4131 31.4783 18.0102 31.0262 17.5725L32.1536 16.3887C31.4286 16.1608 30.8258 15.759 30.2996 15.2753L29.6264 16.7605C28.1494 16.0262 26.6351 15.6978 24.9955 15.673C25.0794 15.0034 25.1582 14.3695 25.2405 13.7102C24.536 13.9085 23.7962 13.9474 23.0747 13.8242C23.1913 14.5109 23.3026 15.1665 23.4165 15.8387C21.84 16.1238 20.3614 16.8033 19.1182 17.8139C18.6081 17.1738 18.2896 16.4306 17.9447 15.6471C17.2968 16.7952 16.3812 17.5855 15.216 18.1298C15.2947 18.1893 15.3356 18.2194 15.3755 18.2515C15.9279 18.6927 16.4786 19.1343 17.0275 19.5762C17.2062 19.7191 17.2388 19.8496 17.0933 20.0677C16.4474 21.0453 15.9882 22.1341 15.7391 23.279C15.6536 23.6602 15.6158 24.0522 15.5474 24.497L14.3227 23.6793ZM16.5221 13.4492C16.4238 13.4539 16.3261 13.4671 16.23 13.4886C14.7965 13.8832 13.7805 14.7688 13.1963 16.1298C13.0927 16.3716 13.087 16.6647 13.0777 16.935C13.0818 16.9975 13.0988 17.0584 13.1277 17.114C13.1566 17.1695 13.1967 17.2185 13.2455 17.2577C13.3657 17.3484 13.5053 17.4102 13.6533 17.4383C13.8014 17.4663 13.9539 17.4598 14.099 17.4193C15.2341 17.1453 16.0866 16.47 16.7582 15.5466C17.0477 15.1489 17.2911 14.718 17.3279 14.2126C17.3683 13.6693 17.1311 13.4316 16.5221 13.4492ZM12.9881 31.1507C13.0202 31.2884 13.0508 31.5308 13.1347 31.753C13.4454 32.5816 13.9747 33.2289 14.7991 33.5904C15.1513 33.7458 15.2968 33.6241 15.3584 33.2543C15.4138 32.9239 15.3408 32.6277 15.2129 32.3351C14.8877 31.5909 14.3776 31.0145 13.6334 30.6779C13.1963 30.4774 12.9803 30.6183 12.9881 31.1507ZM18.1669 35.9622C17.4615 35.9571 17.3341 36.158 17.5723 36.6635C17.576 36.6712 17.5786 36.6795 17.5827 36.6868C18.1037 37.5894 18.8919 38.1037 19.9131 38.2404C20.4968 38.3186 20.6563 38.0721 20.4155 37.5247C20.4125 37.5167 20.4091 37.5089 20.4051 37.5014C19.8805 36.5739 19.0586 36.1 18.1694 35.9622H18.1669ZM38.9186 22.265H38.8953C38.8953 22.1531 38.8984 22.0408 38.8953 21.9294C38.872 21.148 38.569 20.4923 37.974 19.9889C37.6311 19.6995 37.3919 19.7818 37.2324 20.2065C37.2111 20.2624 37.1948 20.3201 37.1837 20.3789C37.062 21.0351 37.2112 21.6518 37.5265 22.2158C37.7131 22.5429 37.9493 22.839 38.2267 23.0936C38.5281 23.3733 38.7544 23.2795 38.8482 22.8782C38.8927 22.6777 38.8942 22.469 38.9186 22.265ZM24.2943 11.3679C24.0307 11.399 23.8345 11.3933 23.6584 11.4492C23.2684 11.5735 22.8738 11.6988 22.5092 11.8806C22.2099 12.0297 22.1835 12.2581 22.4378 12.4762C22.6409 12.645 22.8787 12.7671 23.1343 12.834C23.9111 13.0412 24.6688 12.9132 25.3896 12.5751C25.5179 12.5051 25.6361 12.418 25.7408 12.3161C25.9122 12.1654 25.9054 11.9873 25.7408 11.85C25.5906 11.7283 25.4176 11.6092 25.2353 11.5564C24.9054 11.4622 24.5631 11.4197 24.2943 11.3679ZM31.1821 13.3508C30.4928 13.3239 30.2825 13.5958 30.5539 14.0396C31.1199 14.964 31.9837 15.4425 33.048 15.5223C33.5658 15.5611 33.7155 15.2722 33.4472 14.8144C32.9112 13.8998 32.0423 13.5171 31.1826 13.3493L31.1821 13.3508ZM28.1359 38.882L28.1468 38.8152C28.2587 38.8152 28.371 38.8235 28.4819 38.8152C29.1334 38.7572 29.7175 38.5309 30.2095 38.0938C30.5668 37.7764 30.5156 37.505 30.0769 37.3341C29.6031 37.1492 29.1168 37.1616 28.6305 37.2632C28.0406 37.3864 27.4912 37.6029 27.0924 38.0804C26.8656 38.3512 26.893 38.5164 27.224 38.65C27.5145 38.7603 27.8319 38.8033 28.1364 38.8779L28.1359 38.882ZM13.2481 23.1899C13.2254 22.9912 13.188 22.7943 13.1362 22.6011C13.114 22.527 12.9405 22.4281 12.8773 22.4514C12.6932 22.5172 12.5242 22.6196 12.3807 22.7523C11.8379 23.2878 11.5681 23.9673 11.4816 24.7078C11.4459 25.0139 11.5163 25.3375 11.5717 25.6472C11.6002 25.8052 11.7229 25.9435 11.9115 25.8337C12.1186 25.712 12.3506 25.5929 12.4987 25.4126C12.9969 24.8072 13.2212 24.0921 13.2481 23.1899ZM37.5436 31.3998C37.4918 31.132 37.4587 30.857 37.3764 30.5986C37.2899 30.3278 37.0858 30.2765 36.8471 30.4371C36.7537 30.4985 36.6701 30.5735 36.599 30.6597C35.9838 31.4272 35.8258 32.3345 35.8507 33.2802C35.8554 33.4532 36.0061 33.6784 36.1614 33.7773C36.3406 33.8949 36.5364 33.738 36.6845 33.5997C36.7585 33.528 36.8248 33.4486 36.8823 33.363C37.2914 32.7881 37.5215 32.1051 37.5436 31.3998Z" stroke="white" stroke-width="0.6" mask="url(#path-2-outside-1_234_10126)"/>
<path d="M30.2084 20.0254L30.2083 20.0254C28.6398 20.027 27.3545 21.3034 27.3572 22.8613L27.3572 22.8614C27.361 24.4426 28.6187 25.7551 30.2007 25.7413C30.9561 25.7427 31.6815 25.4457 32.219 24.9148C32.7565 24.3839 33.0626 23.6622 33.0705 22.9068C33.1008 21.3099 31.7997 20.0254 30.2084 20.0254ZM30.2221 21.4129L30.3149 21.4134C30.6856 21.4412 31.0351 21.6022 31.2977 21.8683C31.5823 22.1569 31.742 22.5459 31.742 22.9512L31.742 22.9524C31.7486 23.7646 31.022 24.4819 30.201 24.4688L30.2009 24.4687C29.3508 24.4556 28.6792 23.7558 28.6873 22.8697C28.6947 22.0765 29.387 21.4082 30.2221 21.4129Z" fill="white" stroke="white" stroke-width="0.3"/>
<path d="M22.397 26.8403L22.397 26.8404L25.2658 29.5619L25.2666 29.7119C25.2666 29.7119 25.2667 29.7119 25.2667 29.7119C26.8301 29.7036 28.1273 28.4134 28.1202 26.8703V26.8702C28.1125 25.3004 26.8182 24.0078 25.2565 24.0084C23.6969 24.0089 22.3926 25.2971 22.397 26.8403ZM23.7265 26.8306L23.7265 26.8306C23.7293 26.0453 24.3798 25.3851 25.1834 25.3445L25.2605 25.3451C25.669 25.3484 26.0595 25.5135 26.3464 25.8042C26.6333 26.0949 26.7932 26.4874 26.7912 26.8957C26.7825 27.6878 26.0473 28.4064 25.2492 28.3994C24.4132 28.3899 23.7232 27.6847 23.7265 26.8306Z" fill="white" stroke="white" stroke-width="0.3"/>
<path d="M20.962 19.7053L20.962 19.7052C20.9778 18.1327 22.2815 16.8341 23.8397 16.8462L20.962 19.7053ZM20.962 19.7053C20.9467 21.3167 22.1683 22.5501 23.7946 22.5719M20.962 19.7053L23.7946 22.5719M23.7946 22.5719C25.3496 22.5927 26.6537 21.3371 26.6784 19.7909M23.7946 22.5719L26.6784 19.7909M26.6784 19.7909C26.705 18.1858 25.4267 16.8582 23.8397 16.8462L26.6784 19.7909ZM25.3499 19.6819L25.3499 19.6821C25.3513 20.5114 24.6659 21.1888 23.8141 21.189C22.929 21.1875 22.2491 20.5258 22.2449 19.6853C22.2416 18.8608 22.976 18.1339 23.8211 18.1301C24.6605 18.1264 25.3499 18.8195 25.3499 19.6819Z" fill="white" stroke="white" stroke-width="0.3"/>
<path d="M16.7786 25.0429L16.7786 25.0428C16.7747 23.7588 17.828 22.7279 19.1295 22.7276C19.1297 22.7276 19.1299 22.7276 19.1301 22.7276V22.8776L16.7786 25.0429ZM16.7786 25.0429C16.783 26.3773 17.8057 27.4244 19.1213 27.4244C20.3974 27.4244 21.4733 26.3689 21.4826 25.101L16.7786 25.0429ZM18.1118 25.0492L18.1118 25.0492C18.1082 24.498 18.558 24.0544 19.1383 24.0567C19.7124 24.0589 20.1534 24.5095 20.1484 25.096L20.1484 25.096C20.1439 25.656 19.6946 26.0949 19.1176 26.0912V26.0912H19.1166C18.5375 26.0912 18.1154 25.6615 18.1118 25.0492ZM19.1166 26.2412C19.7738 26.2454 20.2932 25.7425 20.2984 25.0973L17.9618 25.0501C17.9659 25.7394 18.4496 26.2412 19.1166 26.2412Z" fill="white" stroke="white" stroke-width="0.3"/>
<path d="M21.2852 32.5866C20.2156 32.5927 19.3376 31.6978 19.3421 30.6177L21.2852 32.5866ZM21.2852 32.5866C22.3309 32.5809 23.2097 31.6989 23.2097 30.6521M21.2852 32.5866L23.2097 30.6521M23.2097 30.6521C23.2113 29.5935 22.3323 28.6992 21.2801 28.693M23.2097 30.6521L19.3421 30.6177C19.3461 29.5807 20.2454 28.6868 21.2801 28.693M21.2801 28.693L21.2793 28.843M21.2801 28.693L21.2793 28.843M21.2793 28.843C22.2477 28.8487 23.0613 29.6747 23.0597 30.652L19.4921 30.6183C19.4957 29.6639 20.3279 28.8373 21.2793 28.843ZM20.6721 30.6236L20.6721 30.6096C20.6836 30.4564 20.7514 30.3125 20.8628 30.206C20.9784 30.0956 21.1319 30.0338 21.2916 30.0334C21.4511 30.0417 21.6014 30.1108 21.7113 30.2267C21.8218 30.3431 21.883 30.4976 21.8823 30.658C21.8741 30.979 21.574 31.2635 21.2658 31.2541C21.1054 31.2446 20.9547 31.1742 20.8443 31.0574C20.7336 30.9401 20.672 30.7849 20.6721 30.6236Z" fill="white" stroke="white" stroke-width="0.3"/>
<path d="M29.0823 28.4229L29.0823 28.4229C29.0969 27.9099 29.3109 27.4228 29.6789 27.0651C30.0469 26.7073 30.5399 26.5072 31.0531 26.5071L31.0542 26.5071V26.5071C32.0898 26.515 32.9799 27.4162 32.9737 28.4519C32.9737 28.4519 32.9737 28.4519 32.9737 28.4519L32.8237 28.451C32.818 29.4215 31.9847 30.2439 31.0158 30.234L29.0823 28.4229ZM29.0823 28.4229L29.0823 28.4243C29.062 29.4691 29.9587 30.3734 31.0143 30.384L29.0823 28.4229ZM31.0225 29.0483L31.0101 29.0483C30.855 29.0415 30.7079 28.9767 30.598 28.8666C30.4849 28.7531 30.42 28.6002 30.417 28.4401C30.4205 28.126 30.7162 27.8336 31.0317 27.8361C31.3486 27.8386 31.6406 28.1345 31.6385 28.4469C31.6341 28.6073 31.5675 28.7597 31.4528 28.8719C31.3377 28.9844 31.1834 29.0477 31.0225 29.0483Z" fill="white" stroke="white" stroke-width="0.3"/>
<path d="M27.696 33.5457C27.9526 33.5463 28.2068 33.4962 28.444 33.3982C28.6812 33.3002 28.8967 33.1562 29.0781 32.9745C29.2594 32.7929 29.4031 32.5771 29.5007 32.3397C29.5983 32.1023 29.648 31.8479 29.6468 31.5913L29.6468 31.5911C29.6412 30.554 28.7526 29.6634 27.7079 29.6651C26.6634 29.6668 25.7576 30.5761 25.7621 31.619C25.7666 32.661 26.6538 33.5456 27.696 33.5457ZM27.696 33.5457C27.6959 33.5457 27.6959 33.5457 27.6958 33.5457L27.6962 33.3957V33.5457C27.6961 33.5457 27.6961 33.5457 27.696 33.5457ZM27.7037 32.2125L27.702 32.2125C27.3791 32.2113 27.0899 31.9188 27.0932 31.6038C27.0948 31.4566 27.1687 31.302 27.2903 31.1826C27.4116 31.0636 27.5656 30.9939 27.7102 30.9956C27.8703 31.0024 28.0216 31.0705 28.1329 31.1859C28.2445 31.3018 28.3071 31.4563 28.3075 31.6172C28.3076 31.696 28.292 31.7742 28.2616 31.847C28.2312 31.9198 28.1866 31.9859 28.1304 32.0413C28.0742 32.0967 28.0075 32.1404 27.9342 32.1698C27.861 32.1992 27.7826 32.2137 27.7037 32.2125Z" fill="white" stroke="white" stroke-width="0.3"/>
</svg>
