<svg width="25" height="24" viewBox="0 0 25 24" fill="none" xmlns="http://www.w3.org/2000/svg">
<g clip-path="url(#clip0_18_3921)">
<path d="M14.75 19.5001V15.0001C14.75 14.8012 14.671 14.6104 14.5303 14.4697C14.3897 14.3291 14.1989 14.2501 14 14.2501H11C10.8011 14.2501 10.6103 14.3291 10.4697 14.4697C10.329 14.6104 10.25 14.8012 10.25 15.0001V19.5001C10.25 19.699 10.171 19.8898 10.0303 20.0304C9.88968 20.1711 9.69891 20.2501 9.5 20.2501H5C4.80109 20.2501 4.61032 20.1711 4.46967 20.0304C4.32902 19.8898 4.25 19.699 4.25 19.5001V10.8282C4.25168 10.7244 4.27411 10.622 4.31597 10.527C4.35783 10.432 4.41828 10.3464 4.49375 10.2751L11.9937 3.45945C12.132 3.33297 12.3126 3.26282 12.5 3.26282C12.6874 3.26282 12.868 3.33297 13.0062 3.45945L20.5062 10.2751C20.5817 10.3464 20.6422 10.432 20.684 10.527C20.7259 10.622 20.7483 10.7244 20.75 10.8282V19.5001C20.75 19.699 20.671 19.8898 20.5303 20.0304C20.3897 20.1711 20.1989 20.2501 20 20.2501H15.5C15.3011 20.2501 15.1103 20.1711 14.9697 20.0304C14.829 19.8898 14.75 19.699 14.75 19.5001Z" stroke="#7F909F" stroke-width="1.5" stroke-linecap="round" stroke-linejoin="round"/>
</g>
<defs>
<clipPath id="clip0_18_3921">
<rect width="24" height="24" fill="white" transform="translate(0.5 0.00012207)"/>
</clipPath>
</defs>
</svg>
