<svg width="130" height="130" viewBox="0 0 130 130" fill="none" xmlns="http://www.w3.org/2000/svg">
<circle opacity="0.1" cx="65" cy="65" r="65" fill="#0FB957"/>
<circle cx="65" cy="65" r="45" fill="#0FB957"/>
<path d="M64.9993 51.6666C57.6527 51.6666 51.666 57.6533 51.666 65C51.666 72.3466 57.6527 78.3333 64.9993 78.3333C72.346 78.3333 78.3327 72.3466 78.3327 65C78.3327 57.6533 72.346 51.6666 64.9993 51.6666ZM71.3727 61.9333L63.8127 69.4933C63.626 69.68 63.3727 69.7866 63.106 69.7866C62.8393 69.7866 62.586 69.68 62.3993 69.4933L58.626 65.72C58.2393 65.3333 58.2393 64.6933 58.626 64.3066C59.0127 63.92 59.6527 63.92 60.0393 64.3066L63.106 67.3733L69.9594 60.52C70.346 60.1333 70.986 60.1333 71.3727 60.52C71.7593 60.9066 71.7593 61.5333 71.3727 61.9333Z" fill="white"/>
</svg>
