<svg width="40" height="40" viewBox="0 0 40 40" fill="none" xmlns="http://www.w3.org/2000/svg">
<rect opacity="0.15" width="40" height="40" rx="20" fill="#4C5DF4"/>
<path d="M19.535 10.833C21.8107 10.833 23.6667 12.6572 23.6667 14.903V19.2938H18.0708C17.6697 19.2938 17.3526 19.6055 17.3526 19.9997C17.3526 20.3847 17.6697 20.7055 18.0708 20.7055H23.6667V25.0872C23.6667 27.333 21.8107 29.1663 19.5164 29.1663H14.9744C12.6894 29.1663 10.8334 27.3422 10.8334 25.0963V14.9122C10.8334 12.6572 12.6987 10.833 14.9837 10.833H19.535ZM25.9952 16.8374C26.2702 16.5532 26.7194 16.5532 26.9944 16.8282L29.6711 19.4957C29.8086 19.6332 29.8819 19.8074 29.8819 19.9999C29.8819 20.1832 29.8086 20.3665 29.6711 20.4949L26.9944 23.1624C26.8569 23.2999 26.6736 23.3732 26.4994 23.3732C26.3161 23.3732 26.1327 23.2999 25.9952 23.1624C25.7202 22.8874 25.7202 22.4382 25.9952 22.1632L27.4619 20.7057H23.6669V19.294H27.4619L25.9952 17.8365C25.7202 17.5615 25.7202 17.1124 25.9952 16.8374Z" fill="#4C5DF4"/>
</svg>
