<svg width="22" height="22" viewBox="0 0 22 22" fill="none" xmlns="http://www.w3.org/2000/svg">
<g id="Notification">
<g id="Iconly/Light-Outline/Notification">
<g id="Notification_2">
<path id="Combined-Shape" fill-rule="evenodd" clip-rule="evenodd" d="M9.464 18.4305C9.93883 18.9594 10.5484 19.25 11.1809 19.25H11.1818C11.8171 19.25 12.4294 18.9594 12.9052 18.4296C13.16 18.1482 13.5945 18.1253 13.8759 18.3792C14.1582 18.6331 14.1812 19.0685 13.9272 19.3499C13.1866 20.1722 12.2122 20.625 11.1818 20.625H11.18C10.1524 20.6241 9.17983 20.1713 8.44191 19.349C8.188 19.0676 8.21091 18.6322 8.49325 18.3792C8.77558 18.1244 9.21008 18.1473 9.464 18.4305ZM11.2266 0.916687C15.3011 0.916687 18.0383 4.09019 18.0383 7.05377C18.0383 8.57819 18.4261 9.22444 18.8376 9.9101C19.2446 10.5866 19.7057 11.3548 19.7057 12.8068C19.3858 16.5165 15.5129 16.819 11.2266 16.819C6.94023 16.819 3.0664 16.5165 2.75013 12.8654C2.7474 11.3548 3.20848 10.5866 3.61548 9.9101L3.75916 9.66825C4.11293 9.06022 4.41481 8.39884 4.41481 7.05377C4.41481 4.09019 7.15198 0.916687 11.2266 0.916687ZM11.2266 2.29169C8.02281 2.29169 5.78981 4.80152 5.78981 7.05377C5.78981 8.95952 5.2609 9.84044 4.7934 10.6178C4.41848 11.242 4.1224 11.7352 4.1224 12.8068C4.27548 14.5356 5.41673 15.444 11.2266 15.444C17.0043 15.444 18.1813 14.4953 18.3335 12.7472C18.3307 11.7352 18.0346 11.242 17.6597 10.6178C17.1922 9.84044 16.6633 8.95952 16.6633 7.05377C16.6633 4.80152 14.4303 2.29169 11.2266 2.29169Z" fill="#0C1037"/>
</g>
</g>
</g>
</svg>
