<svg width="22" height="22" viewBox="0 0 22 22" fill="none" xmlns="http://www.w3.org/2000/svg">
<g id="Buy">
<path id="Vector" d="M21 8.69338V8.84839C20.6848 9.46845 20.5145 10.2001 20.0324 10.6652C17.8039 12.8152 15.5501 14.9513 13.1683 16.9557C12.3642 17.6331 12.0473 18.233 12.0928 19.191C12.1535 20.4311 11.4371 21.0031 10.0784 21C7.82293 21 5.56577 20.9922 3.30863 20.9845C1.48302 20.9845 1.0262 20.5628 1.02283 18.9026C1.02283 15.6752 1.05148 12.4463 1.00091 9.21888C0.980682 7.91365 1.29591 6.73864 2.09999 5.67834C2.4759 5.18075 2.85686 4.6878 3.15355 4.30026C2.67987 4.02434 2.12696 3.86932 1.87747 3.52519C1.33131 2.77337 1.75442 1.4945 2.58716 1H10.6229C11.7371 1.45264 11.5315 2.35948 11.4657 3.18416C11.3966 4.05844 10.5942 4.07859 9.90475 4.12975C10.5453 5.12804 11.3191 6.01472 11.7068 7.02697C12.0945 8.03922 12.0978 9.19718 12.2748 10.3226C13.5324 9.16462 14.7596 8.00976 16.0171 6.88436C17.0622 5.95427 18.4125 5.84266 19.6093 6.52162C20.5061 7.03162 20.7876 7.83615 21 8.69338ZM2.12021 9.05921H10.9195C11.0679 7.77104 10.6802 6.92931 9.66876 5.47372C8.95234 4.44133 8.13478 4.01348 6.76094 4.08789C4.43131 4.2119 4.42456 4.12045 3.12994 5.91862C2.45735 6.85025 1.97862 7.83615 2.12021 9.05921ZM5.61803 14.7591C5.97709 15.1745 4.9977 16.2751 6.46088 16.3527C8.08252 16.4379 7.12167 15.2024 7.44196 14.8025C8.05218 14.2848 9.28105 15.2458 9.29622 13.8275C9.32151 12.3486 8.03195 13.3376 7.69312 13.0601C7.03064 12.4649 8.14489 11.3441 6.62102 11.2682C4.98084 11.1876 5.93663 12.3998 5.55566 12.8943C4.99095 13.3035 3.70139 12.3688 3.74859 13.8352C3.80591 15.1885 4.98589 14.2553 5.61466 14.7591H5.61803ZM10.9212 18.5663H2.04604C2.00053 19.7413 2.30901 20.056 3.50249 20.0622C5.47812 20.0725 7.45432 20.0756 9.43107 20.0715C10.5925 20.0684 10.9499 19.7072 10.9179 18.5663H10.9212ZM12.1248 17.0161L15.4372 13.7159L12.4586 10.9721C12.3558 11.1783 12.1383 11.4139 12.1332 11.6526C12.108 13.3609 12.1214 15.0691 12.1214 17.0223L12.1248 17.0161Z" fill="#6E7682"/>
</g>
</svg>
