<svg width="40" height="40" viewBox="0 0 40 40" fill="none" xmlns="http://www.w3.org/2000/svg">
<rect opacity="0.12" width="40" height="40" rx="20" fill="#4C5DF4"/>
<path d="M20.0001 21.0182C22.8478 21.0182 25.1564 18.7382 25.1564 15.9256C25.1564 13.113 22.8478 10.833 20.0001 10.833C17.1523 10.833 14.8438 13.113 14.8438 15.9256C14.8438 18.7382 17.1523 21.0182 20.0001 21.0182Z" fill="#4C5DF4"/>
<path d="M28.2411 26.1196C28.2457 26.0471 28.2457 25.9744 28.2411 25.9019C28.2206 25.6341 28.1446 25.3725 28.0173 25.1318C27.516 24.1523 26.1107 23.7086 24.9382 23.4575C24.1016 23.2833 23.2516 23.1714 22.3961 23.1226L21.501 23.0557H21.0982H20.597H19.3976H18.8963H18.4935L17.5984 23.1226C16.743 23.1714 15.893 23.2833 15.0564 23.4575C13.8838 23.6751 12.4785 24.1272 11.9773 25.1318C11.8499 25.3725 11.7739 25.6341 11.7535 25.9019C11.7488 25.9744 11.7488 26.0471 11.7535 26.1196C11.7492 26.1921 11.7492 26.2648 11.7535 26.3372C11.7778 26.6028 11.8569 26.8615 11.9862 27.099C12.4875 28.0785 13.8928 28.5222 15.0653 28.7733C15.9035 28.9393 16.7528 29.0512 17.6074 29.1082L18.5025 29.1668H18.7173H18.9053H21.1072H21.2951H21.51L22.4051 29.1082C23.2596 29.0512 24.109 28.9393 24.9471 28.7733C26.1197 28.5473 27.525 28.1036 28.0262 27.099C28.1496 26.854 28.2253 26.5904 28.25 26.3205C28.2511 26.2534 28.2481 26.1863 28.2411 26.1196Z" fill="#4C5DF4"/>
</svg>
