<svg width="40" height="40" viewBox="0 0 40 40" fill="none" xmlns="http://www.w3.org/2000/svg">
<rect opacity="0.17" width="40" height="40" rx="20" fill="#4AAF4F"/>
<path d="M25.4253 22.127C25.1879 22.3571 25.0788 22.6898 25.1329 23.0162L25.9478 27.5262C26.0166 27.9084 25.8552 28.2952 25.5353 28.5162C25.2218 28.7453 24.8047 28.7728 24.4628 28.5895L20.4029 26.472C20.2617 26.3968 20.105 26.3565 19.9446 26.3519H19.6961C19.61 26.3647 19.5256 26.3922 19.4486 26.4344L15.3878 28.562C15.1871 28.6628 14.9597 28.6986 14.737 28.6628C14.1943 28.5602 13.8322 28.0432 13.9211 27.4977L14.737 22.9877C14.7911 22.6587 14.682 22.3241 14.4446 22.0903L11.1345 18.882C10.8576 18.6134 10.7614 18.2101 10.8879 17.8462C11.0107 17.4832 11.3242 17.2182 11.7028 17.1587L16.2586 16.4977C16.6051 16.462 16.9095 16.2512 17.0653 15.9395L19.0728 11.8237C19.1205 11.732 19.1819 11.6477 19.2561 11.5762L19.3386 11.512C19.3817 11.4643 19.4312 11.4249 19.4862 11.3928L19.5861 11.3562L19.742 11.292H20.1279C20.4726 11.3277 20.776 11.534 20.9346 11.842L22.9686 15.9395C23.1153 16.2392 23.4004 16.4473 23.7295 16.4977L28.2853 17.1587C28.6703 17.2137 28.9921 17.4795 29.1195 17.8462C29.2396 18.2137 29.136 18.6171 28.8536 18.882L25.4253 22.127Z" fill="#4AAF4F"/>
</svg>
