<svg width="14" height="14" viewBox="0 0 14 14" fill="none" xmlns="http://www.w3.org/2000/svg">
<path d="M6.55161 2.07499C6.73502 1.7034 7.26489 1.7034 7.44831 2.07499L8.68624 4.58288C8.75901 4.73031 8.8996 4.83254 9.06228 4.85631L11.8314 5.26106C12.2414 5.32098 12.4047 5.82491 12.108 6.11399L10.105 8.06484C9.98708 8.17971 9.93325 8.34528 9.96108 8.50754L10.4337 11.263C10.5037 11.6715 10.075 11.9829 9.70814 11.79L7.23268 10.4882C7.08699 10.4116 6.91292 10.4116 6.76723 10.4882L4.29178 11.79C3.92496 11.9829 3.49619 11.6715 3.56625 11.263L4.03884 8.50754C4.06667 8.34528 4.01284 8.17971 3.8949 8.06484L1.89197 6.11399C1.59517 5.82491 1.75856 5.32099 2.16852 5.26106L4.93764 4.85631C5.10032 4.83254 5.24091 4.73031 5.31368 4.58288L6.55161 2.07499Z" fill="#FEBA0C"/>
</svg>
