<svg width="16" height="16" viewBox="0 0 16 16" fill="none" xmlns="http://www.w3.org/2000/svg">
<path d="M8.00004 1.3334C11.6867 1.3334 14.6667 4.32007 14.6667 8.00007C14.6667 11.6867 11.6867 14.6667 8.00004 14.6667C4.32004 14.6667 1.33337 11.6867 1.33337 8.00007C1.33337 4.32007 4.32004 1.3334 8.00004 1.3334ZM7.76671 4.62007C7.49337 4.62007 7.26671 4.84007 7.26671 5.12007V8.48674C7.26671 8.66007 7.36004 8.82007 7.51337 8.9134L10.1267 10.4734C10.2067 10.5201 10.2934 10.5467 10.3867 10.5467C10.5534 10.5467 10.72 10.4601 10.8134 10.3001C10.9534 10.0667 10.88 9.76007 10.64 9.6134L8.26671 8.20007V5.12007C8.26671 4.84007 8.04004 4.62007 7.76671 4.62007Z" fill="#4AAF4F"/>
</svg>
